# This file uses centimeters as units for non-parametric coordinates.

mtllib Pasto.mtl
g default
v -40000.000000 -5326.776641 40000.000000
v 40000.000000 -5326.776641 40000.000000
v -40000.000000 -5296.776641 40000.000000
v 40000.000000 -5296.776641 40000.000000
v -40000.000000 -5296.776641 -40000.000000
v 40000.000000 -5296.776641 -40000.000000
v -40000.000000 -5326.776641 -40000.000000
v 40000.000000 -5326.776641 -40000.000000
v 0.000000 -5326.776641 0.000000
v 0.000000 -5326.776641 -40000.000000
v 40000.000000 -5326.776641 0.000000
v 0.000000 -5326.776641 40000.000000
v -40000.000000 -5326.776641 0.000000
vt 0.375000 0.000000
vt 0.625000 0.000000
vt 0.375000 0.250000
vt 0.625000 0.250000
vt 0.375000 0.500000
vt 0.625000 0.500000
vt 0.375000 0.750000
vt 0.625000 0.750000
vt 0.375000 1.000000
vt 0.625000 1.000000
vt 0.875000 0.000000
vt 0.875000 0.250000
vt 0.125000 0.000000
vt 0.125000 0.250000
vt 0.500000 0.875000
vt 0.500000 0.750000
vt 0.625000 0.875000
vt 0.750000 0.000000
vt 0.500000 0.000000
vt 0.500000 1.000000
vt 0.250000 0.000000
vt 0.375000 0.875000
vt 0.001992 0.998008
vt 0.001992 0.001992
vt 0.998008 0.001992
vt 0.998008 0.998008
vn 0.000000 0.000000 1.000000
vn 0.000000 0.000000 1.000000
vn 0.000000 0.000000 1.000000
vn 0.000000 0.000000 1.000000
vn 0.000000 0.000000 1.000000
vn 0.000000 1.000000 0.000000
vn 0.000000 1.000000 0.000000
vn 0.000000 1.000000 0.000000
vn 0.000000 1.000000 0.000000
vn 0.000000 0.000000 -1.000000
vn 0.000000 0.000000 -1.000000
vn 0.000000 0.000000 -1.000000
vn 0.000000 0.000000 -1.000000
vn 0.000000 0.000000 -1.000000
vn 0.000000 -1.000000 0.000000
vn 0.000000 -1.000000 0.000000
vn 0.000000 -1.000000 0.000000
vn 0.000000 -1.000000 0.000000
vn 1.000000 0.000000 0.000000
vn 1.000000 0.000000 0.000000
vn 1.000000 0.000000 0.000000
vn 1.000000 0.000000 0.000000
vn 1.000000 0.000000 0.000000
vn -1.000000 0.000000 0.000000
vn -1.000000 0.000000 0.000000
vn -1.000000 0.000000 0.000000
vn -1.000000 0.000000 0.000000
vn -1.000000 0.000000 0.000000
vn 0.000000 -1.000000 0.000000
vn 0.000000 -1.000000 0.000000
vn 0.000000 -1.000000 0.000000
vn 0.000000 -1.000000 0.000000
vn 0.000000 -1.000000 0.000000
vn 0.000000 -1.000000 0.000000
vn 0.000000 -1.000000 0.000000
vn 0.000000 -1.000000 0.000000
vn 0.000000 -1.000000 0.000000
vn 0.000000 -1.000000 0.000000
vn 0.000000 -1.000000 0.000000
vn 0.000000 -1.000000 0.000000
s off
g pCube42
usemtl phong9SG
f 1/1/1 12/19/2 2/2/3 4/4/4 3/3/5
f 3/23/6 4/24/7 6/25/8 5/26/9
f 5/5/10 6/6/11 8/8/12 10/16/13 7/7/14
f 13/22/15 7/7/16 10/16/17 9/15/18
f 2/2/19 11/18/20 8/11/21 6/12/22 4/4/23
f 7/13/24 13/21/25 1/1/26 3/3/27 5/14/28
f 10/16/29 8/8/30 11/17/31 9/15/32
f 11/17/33 2/10/34 12/20/35 9/15/36
f 12/20/37 1/9/38 13/22/39 9/15/40
