# This file uses centimeters as units for non-parametric coordinates.

mtllib Cartel.mtl
g default
v -3009.000000 -200.000000 -5394.062500
v 3009.000000 -200.000000 -5394.062500
v -3009.000000 200.000000 -5394.062500
v 3009.000000 200.000000 -5394.062500
v -3009.000000 200.000000 -5404.062500
v 3009.000000 200.000000 -5404.062500
v -3009.000000 -200.000000 -5404.062500
v 3009.000000 -200.000000 -5404.062500
v -3004.364258 189.228577 -5398.701660
v -3004.652832 188.579529 -5400.095703
v -3005.101807 187.568665 -5401.201660
v -3005.667725 186.294861 -5401.912109
v -3006.294922 184.882874 -5402.156738
v -3006.922363 183.470886 -5401.912109
v -3007.488281 182.197083 -5401.201660
v -3007.937500 181.186218 -5400.095703
v -3008.225830 180.537170 -5398.701660
v -3008.325195 180.313538 -5397.156738
v -3008.225830 180.537170 -5395.611816
v -3007.937500 181.186218 -5394.217773
v -3007.488281 182.197083 -5393.111816
v -3006.922363 183.470886 -5392.401367
v -3006.294922 184.882874 -5392.156738
v -3005.667725 186.294861 -5392.401367
v -3005.101807 187.568665 -5393.111816
v -3004.652832 188.579529 -5394.217773
v -3004.364258 189.228577 -5395.611816
v -3004.265137 189.452209 -5397.156738
v -5563.187500 1326.077148 -5398.701660
v -5563.475586 1325.428223 -5400.095703
v -5563.924805 1324.417236 -5401.201660
v -5564.490723 1323.143555 -5401.912109
v -5565.118164 1321.731445 -5402.156738
v -5565.745117 1320.319580 -5401.912109
v -5566.311523 1319.045654 -5401.201660
v -5566.760254 1318.034912 -5400.095703
v -5567.048828 1317.385742 -5398.701660
v -5567.147949 1317.162109 -5397.156738
v -5567.048828 1317.385742 -5395.611816
v -5566.760254 1318.034912 -5394.217773
v -5566.311523 1319.045654 -5393.111816
v -5565.745117 1320.319580 -5392.401367
v -5565.118164 1321.731445 -5392.156738
v -5564.490723 1323.143555 -5392.401367
v -5563.924805 1324.417236 -5393.111816
v -5563.475586 1325.428223 -5394.217773
v -5563.187500 1326.077148 -5395.611816
v -5563.087891 1326.300781 -5397.156738
v -3006.294922 184.882874 -5397.156738
v -5565.118164 1321.731445 -5397.156738
v 3008.227295 180.534668 -5398.702148
v 3007.938965 181.183716 -5400.096191
v 3007.489746 182.194580 -5401.202148
v 3006.923828 183.468384 -5401.912598
v 3006.296387 184.880371 -5402.157227
v 3005.669189 186.292358 -5401.912598
v 3005.103271 187.566162 -5401.202148
v 3004.654297 188.577026 -5400.096191
v 3004.365723 189.226074 -5398.702148
v 3004.266357 189.449707 -5397.157227
v 3004.365723 189.226074 -5395.612305
v 3004.654297 188.577026 -5394.218262
v 3005.103271 187.566162 -5393.112305
v 3005.669189 186.292358 -5392.401855
v 3006.296387 184.880371 -5392.157227
v 3006.923828 183.468384 -5392.401855
v 3007.489746 182.194580 -5393.112305
v 3007.938965 181.183716 -5394.218262
v 3008.227295 180.534668 -5395.612305
v 3008.326660 180.311035 -5397.157227
v 5567.048340 1317.387939 -5398.702148
v 5566.759766 1318.036987 -5400.096191
v 5566.310547 1319.047852 -5401.202148
v 5565.745117 1320.321655 -5401.912598
v 5565.117676 1321.733643 -5402.157227
v 5564.490234 1323.145630 -5401.912598
v 5563.924316 1324.419434 -5401.202148
v 5563.475098 1325.430298 -5400.096191
v 5563.186523 1326.079346 -5398.702148
v 5563.087402 1326.302979 -5397.157227
v 5563.186523 1326.079346 -5395.612305
v 5563.475098 1325.430298 -5394.218262
v 5563.924316 1324.419434 -5393.112305
v 5564.490234 1323.145630 -5392.401855
v 5565.117676 1321.733643 -5392.157227
v 5565.745117 1320.321655 -5392.401855
v 5566.310547 1319.047852 -5393.112305
v 5566.759766 1318.036987 -5394.218262
v 5567.048340 1317.387939 -5395.612305
v 5567.147461 1317.164307 -5397.157227
v 3006.296387 184.880371 -5397.157227
v 5565.117676 1321.733643 -5397.157227
vt 0.001992 0.001992
vt 0.998008 0.001992
vt 0.998008 0.998008
vt 0.001992 0.998008
vt 0.375000 0.250000
vt 0.625000 0.250000
vt 0.625000 0.500000
vt 0.375000 0.500000
vt 0.996582 0.998008
vt 0.001989 0.998008
vt 0.001989 0.001992
vt 0.996582 0.001992
vt 0.375000 0.750000
vt 0.625000 0.750000
vt 0.625000 1.000000
vt 0.375000 1.000000
vt 0.625000 0.000000
vt 0.875000 0.000000
vt 0.875000 0.250000
vt 0.125000 0.000000
vt 0.375000 0.000000
vt 0.125000 0.250000
vt 0.375000 0.312500
vt 0.387500 0.312500
vt 0.387500 0.688440
vt 0.375000 0.688440
vt 0.400000 0.312500
vt 0.400000 0.688440
vt 0.412500 0.312500
vt 0.412500 0.688440
vt 0.425000 0.312500
vt 0.425000 0.688440
vt 0.437500 0.312500
vt 0.437500 0.688440
vt 0.450000 0.312500
vt 0.450000 0.688440
vt 0.462500 0.312500
vt 0.462500 0.688440
vt 0.475000 0.312500
vt 0.475000 0.688440
vt 0.487500 0.312500
vt 0.487500 0.688440
vt 0.500000 0.312500
vt 0.500000 0.688440
vt 0.512500 0.312500
vt 0.512500 0.688440
vt 0.525000 0.312500
vt 0.525000 0.688440
vt 0.537500 0.312500
vt 0.537500 0.688440
vt 0.550000 0.312500
vt 0.550000 0.688440
vt 0.562500 0.312500
vt 0.562500 0.688440
vt 0.575000 0.312500
vt 0.575000 0.688440
vt 0.587500 0.312500
vt 0.587500 0.688440
vt 0.600000 0.312500
vt 0.600000 0.688440
vt 0.612500 0.312500
vt 0.612500 0.688440
vt 0.625000 0.312500
vt 0.625000 0.688440
vt 0.626409 0.064408
vt 0.648603 0.107966
vt 0.500000 0.150000
vt 0.591842 0.029841
vt 0.548284 0.007647
vt 0.500000 -0.000000
vt 0.451716 0.007647
vt 0.408159 0.029841
vt 0.373591 0.064409
vt 0.351397 0.107966
vt 0.343750 0.156250
vt 0.351397 0.204534
vt 0.373591 0.248091
vt 0.408159 0.282659
vt 0.451716 0.304853
vt 0.500000 0.312500
vt 0.548284 0.304853
vt 0.591841 0.282659
vt 0.626409 0.248091
vt 0.648603 0.204534
vt 0.656250 0.156250
vt 0.648603 0.892034
vt 0.626409 0.935591
vt 0.500000 0.837500
vt 0.591841 0.970159
vt 0.548284 0.992353
vt 0.500000 1.000000
vt 0.451716 0.992353
vt 0.408159 0.970159
vt 0.373591 0.935591
vt 0.351397 0.892034
vt 0.343750 0.843750
vt 0.351397 0.795466
vt 0.373591 0.751909
vt 0.408159 0.717341
vt 0.451716 0.695147
vt 0.500000 0.687500
vt 0.548284 0.695147
vt 0.591842 0.717341
vt 0.626409 0.751908
vt 0.648603 0.795466
vt 0.656250 0.843750
vt 0.375000 0.312500
vt 0.387500 0.312500
vt 0.387500 0.688440
vt 0.375000 0.688440
vt 0.400000 0.312500
vt 0.400000 0.688440
vt 0.412500 0.312500
vt 0.412500 0.688440
vt 0.425000 0.312500
vt 0.425000 0.688440
vt 0.437500 0.312500
vt 0.437500 0.688440
vt 0.450000 0.312500
vt 0.450000 0.688440
vt 0.462500 0.312500
vt 0.462500 0.688440
vt 0.475000 0.312500
vt 0.475000 0.688440
vt 0.487500 0.312500
vt 0.487500 0.688440
vt 0.500000 0.312500
vt 0.500000 0.688440
vt 0.512500 0.312500
vt 0.512500 0.688440
vt 0.525000 0.312500
vt 0.525000 0.688440
vt 0.537500 0.312500
vt 0.537500 0.688440
vt 0.550000 0.312500
vt 0.550000 0.688440
vt 0.562500 0.312500
vt 0.562500 0.688440
vt 0.575000 0.312500
vt 0.575000 0.688440
vt 0.587500 0.312500
vt 0.587500 0.688440
vt 0.600000 0.312500
vt 0.600000 0.688440
vt 0.612500 0.312500
vt 0.612500 0.688440
vt 0.625000 0.312500
vt 0.625000 0.688440
vt 0.626409 0.064408
vt 0.648603 0.107966
vt 0.500000 0.150000
vt 0.591842 0.029841
vt 0.548284 0.007647
vt 0.500000 -0.000000
vt 0.451716 0.007647
vt 0.408159 0.029841
vt 0.373591 0.064409
vt 0.351397 0.107966
vt 0.343750 0.156250
vt 0.351397 0.204534
vt 0.373591 0.248091
vt 0.408159 0.282659
vt 0.451716 0.304853
vt 0.500000 0.312500
vt 0.548284 0.304853
vt 0.591841 0.282659
vt 0.626409 0.248091
vt 0.648603 0.204534
vt 0.656250 0.156250
vt 0.648603 0.892034
vt 0.626409 0.935591
vt 0.500000 0.837500
vt 0.591841 0.970159
vt 0.548284 0.992353
vt 0.500000 1.000000
vt 0.451716 0.992353
vt 0.408159 0.970159
vt 0.373591 0.935591
vt 0.351397 0.892034
vt 0.343750 0.843750
vt 0.351397 0.795466
vt 0.373591 0.751909
vt 0.408159 0.717341
vt 0.451716 0.695147
vt 0.500000 0.687500
vt 0.548284 0.695147
vt 0.591842 0.717341
vt 0.626409 0.751908
vt 0.648603 0.795466
vt 0.656250 0.843750
vn 0.000000 0.000000 1.000000
vn 0.000000 0.000000 1.000000
vn 0.000000 0.000000 1.000000
vn 0.000000 0.000000 1.000000
vn 0.000000 1.000000 0.000000
vn 0.000000 1.000000 0.000000
vn 0.000000 1.000000 0.000000
vn 0.000000 1.000000 0.000000
vn 0.000000 0.000000 -1.000000
vn 0.000000 0.000000 -1.000000
vn 0.000000 0.000000 -1.000000
vn 0.000000 0.000000 -1.000000
vn 0.000000 -1.000000 0.000000
vn 0.000000 -1.000000 0.000000
vn 0.000000 -1.000000 0.000000
vn 0.000000 -1.000000 0.000000
vn 1.000000 0.000000 0.000000
vn 1.000000 0.000000 0.000000
vn 1.000000 0.000000 0.000000
vn 1.000000 0.000000 0.000000
vn -1.000000 0.000000 0.000000
vn -1.000000 0.000000 0.000000
vn -1.000000 0.000000 0.000000
vn -1.000000 0.000000 0.000000
vn 0.386087 0.869177 -0.308981
vn 0.328469 0.739351 -0.587765
vn 0.328470 0.739353 -0.587763
vn 0.386087 0.869177 -0.308981
vn 0.238659 0.537169 -0.809006
vn 0.238660 0.537171 -0.809005
vn 0.125564 0.282433 -0.951034
vn 0.125565 0.282434 -0.951033
vn 0.000058 -0.000000 -1.000000
vn 0.000061 0.000007 -1.000000
vn -0.125508 -0.282436 -0.951041
vn -0.125510 -0.282441 -0.951039
vn -0.238709 -0.537151 -0.809004
vn -0.238710 -0.537155 -0.809001
vn -0.328514 -0.739323 -0.587775
vn -0.328514 -0.739321 -0.587778
vn -0.386075 -0.869149 -0.309073
vn -0.386074 -0.869148 -0.309076
vn -0.406000 -0.913873 -0.000000
vn -0.406000 -0.913873 -0.000000
vn -0.386222 -0.869090 0.309055
vn -0.386221 -0.869089 0.309058
vn -0.328411 -0.739351 0.587797
vn -0.328411 -0.739350 0.587799
vn -0.238600 -0.537166 0.809026
vn -0.238602 -0.537170 0.809022
vn -0.125451 -0.282438 0.951047
vn -0.125453 -0.282443 0.951045
vn 0.000058 -0.000000 1.000000
vn 0.000061 0.000007 1.000000
vn 0.125564 0.282433 0.951034
vn 0.125565 0.282434 0.951034
vn 0.238714 0.537162 0.808995
vn 0.238714 0.537164 0.808994
vn 0.328470 0.739352 0.587764
vn 0.328470 0.739354 0.587761
vn 0.386234 0.869118 0.308962
vn 0.386234 0.869118 0.308962
vn 0.406000 0.913873 0.000000
vn 0.406000 0.913873 0.000000
vn 0.913989 -0.405740 -0.000049
vn 0.913898 -0.405945 0.000004
vn 0.913869 -0.406010 0.000000
vn 0.913900 -0.405939 0.000004
vn 0.913843 -0.406068 -0.000010
vn 0.913900 -0.405939 0.000000
vn 0.913843 -0.406068 -0.000010
vn 0.913874 -0.405998 0.000002
vn 0.913916 -0.405904 -0.000000
vn 0.913874 -0.405998 -0.000016
vn 0.913832 -0.406092 0.000000
vn 0.913832 -0.406092 0.000016
vn 0.913832 -0.406092 0.000002
vn 0.913843 -0.406068 0.000001
vn 0.913853 -0.406045 0.000011
vn 0.913900 -0.405939 0.000000
vn 0.913796 -0.406174 0.000010
vn 0.913832 -0.406092 -0.000006
vn 0.913903 -0.405933 0.000047
vn 0.913832 -0.406092 -0.000004
vn 0.913879 -0.405986 0.000000
vn -0.913879 0.405986 -0.000000
vn -0.913874 0.405998 -0.000063
vn -0.913872 0.406002 -0.000001
vn -0.913806 0.406150 0.000000
vn -0.913926 0.405880 0.000000
vn -0.913957 0.405810 0.000000
vn -0.913843 0.406068 -0.000055
vn -0.913874 0.405998 0.000008
vn -0.913921 0.405892 0.000032
vn -0.913879 0.405986 0.000000
vn -0.913832 0.406092 0.000000
vn -0.913879 0.405986 -0.000000
vn -0.913832 0.406092 -0.000032
vn -0.913786 0.406197 0.000000
vn -0.913832 0.406092 0.000063
vn -0.913947 0.405833 0.000000
vn -0.913947 0.405834 0.000000
vn -0.913874 0.405998 -0.000016
vn -0.913879 0.405986 0.000047
vn -0.913838 0.406080 0.000000
vn -0.913832 0.406092 0.000000
vn 0.386129 -0.869141 -0.309028
vn 0.328509 -0.739311 -0.587794
vn 0.328512 -0.739317 -0.587785
vn 0.386129 -0.869141 -0.309030
vn 0.238657 -0.537165 -0.809010
vn 0.238654 -0.537158 -0.809015
vn 0.125452 -0.282441 -0.951046
vn 0.125449 -0.282434 -0.951049
vn 0.000000 -0.000000 -1.000000
vn 0.000003 -0.000006 -1.000000
vn -0.125452 0.282441 -0.951046
vn -0.125453 0.282442 -0.951046
vn -0.238659 0.537168 -0.809007
vn -0.238659 0.537169 -0.809006
vn -0.328510 0.739313 -0.587791
vn -0.328507 0.739306 -0.587800
vn -0.386130 0.869143 -0.309020
vn -0.386129 0.869142 -0.309025
vn -0.406000 0.913873 0.000000
vn -0.406000 0.913873 0.000000
vn -0.386179 0.869124 0.309013
vn -0.386179 0.869123 0.309018
vn -0.328458 0.739325 0.587804
vn -0.328455 0.739319 0.587813
vn -0.238659 0.537169 0.809006
vn -0.238660 0.537171 0.809005
vn -0.125509 0.282439 0.951039
vn -0.125510 0.282440 0.951039
vn -0.000000 0.000000 1.000000
vn 0.000002 -0.000006 1.000000
vn 0.125509 -0.282439 0.951039
vn 0.125506 -0.282431 0.951042
vn 0.238657 -0.537163 0.809011
vn 0.238654 -0.537157 0.809016
vn 0.328458 -0.739326 0.587803
vn 0.328461 -0.739332 0.587794
vn 0.386178 -0.869121 0.309022
vn 0.386178 -0.869121 0.309023
vn 0.406000 -0.913873 -0.000000
vn 0.406000 -0.913873 -0.000000
vn -0.913853 -0.406045 -0.000006
vn -0.913963 -0.405798 -0.000020
vn -0.913866 -0.406016 0.000000
vn -0.913796 -0.406174 0.000003
vn -0.913874 -0.405998 -0.000011
vn -0.913900 -0.405939 0.000000
vn -0.913838 -0.406080 -0.000008
vn -0.913786 -0.406197 0.000008
vn -0.913856 -0.406039 -0.000047
vn -0.913916 -0.405904 -0.000067
vn -0.913921 -0.405892 0.000000
vn -0.913898 -0.405945 0.000067
vn -0.913900 -0.405939 0.000047
vn -0.913796 -0.406174 -0.000007
vn -0.913827 -0.406103 0.000009
vn -0.913900 -0.405939 0.000000
vn -0.913864 -0.406021 0.000010
vn -0.913806 -0.406150 -0.000002
vn -0.913851 -0.406050 0.000008
vn -0.913898 -0.405945 0.000020
vn -0.913874 -0.405998 0.000000
vn 0.913916 0.405904 -0.000032
vn 0.913739 0.406303 -0.000126
vn 0.913871 0.406006 -0.000001
vn 0.913973 0.405775 0.000032
vn 0.913978 0.405763 0.000063
vn 0.913759 0.406256 0.000000
vn 0.913874 0.405998 -0.000008
vn 0.913843 0.406068 -0.000008
vn 0.913853 0.406045 0.000063
vn 0.913869 0.406010 -0.000000
vn 0.913780 0.406209 0.000000
vn 0.913827 0.406103 0.000000
vn 0.913874 0.405998 -0.000063
vn 0.913853 0.406045 0.000000
vn 0.913864 0.406021 0.000000
vn 0.913759 0.406256 0.000000
vn 0.913968 0.405787 -0.000063
vn 0.914030 0.405646 -0.000032
vn 0.913806 0.406150 0.000126
vn 0.913874 0.405998 0.000032
vn 0.913968 0.405787 -0.000000
s off
g Cartel
usemtl Cartel_phong2SG
f 1/1/1 2/2/2 4/3/3 3/4/4
f 3/5/5 4/6/6 6/7/7 5/8/8
f 5/9/9 6/10/10 8/11/11 7/12/12
f 7/13/13 8/14/14 2/15/15 1/16/16
f 2/17/17 8/18/18 6/19/19 4/6/20
f 7/20/21 1/21/22 3/5/23 5/22/24
s 1
usemtl initialShadingGroup
f 9/23/25 10/24/26 30/25/27 29/26/28
f 10/24/26 11/27/29 31/28/30 30/25/27
f 11/27/29 12/29/31 32/30/32 31/28/30
f 12/29/31 13/31/33 33/32/34 32/30/32
f 13/31/33 14/33/35 34/34/36 33/32/34
f 14/33/35 15/35/37 35/36/38 34/34/36
f 15/35/37 16/37/39 36/38/40 35/36/38
f 16/37/39 17/39/41 37/40/42 36/38/40
f 17/39/41 18/41/43 38/42/44 37/40/42
f 18/41/43 19/43/45 39/44/46 38/42/44
f 19/43/45 20/45/47 40/46/48 39/44/46
f 20/45/47 21/47/49 41/48/50 40/46/48
f 21/47/49 22/49/51 42/50/52 41/48/50
f 22/49/51 23/51/53 43/52/54 42/50/52
f 23/51/53 24/53/55 44/54/56 43/52/54
f 24/53/55 25/55/57 45/56/58 44/54/56
f 25/55/57 26/57/59 46/58/60 45/56/58
f 26/57/59 27/59/61 47/60/62 46/58/60
f 27/59/61 28/61/63 48/62/64 47/60/62
f 28/61/63 9/63/25 29/64/28 48/62/64
s 2
f 10/65/65 9/66/66 49/67/67
f 11/68/68 10/65/65 49/67/67
f 12/69/69 11/68/68 49/67/67
f 13/70/70 12/69/69 49/67/67
f 14/71/71 13/70/70 49/67/67
f 15/72/72 14/71/71 49/67/67
f 16/73/73 15/72/72 49/67/67
f 17/74/74 16/73/73 49/67/67
f 18/75/75 17/74/74 49/67/67
f 19/76/76 18/75/75 49/67/67
f 20/77/77 19/76/76 49/67/67
f 21/78/78 20/77/77 49/67/67
f 22/79/79 21/78/78 49/67/67
f 23/80/80 22/79/79 49/67/67
f 24/81/81 23/80/80 49/67/67
f 25/82/82 24/81/81 49/67/67
f 26/83/83 25/82/82 49/67/67
f 27/84/84 26/83/83 49/67/67
f 28/85/85 27/84/84 49/67/67
f 9/66/66 28/85/85 49/67/67
s 3
f 29/86/86 30/87/87 50/88/88
f 30/87/87 31/89/89 50/88/88
f 31/89/89 32/90/90 50/88/88
f 32/90/90 33/91/91 50/88/88
f 33/91/91 34/92/92 50/88/88
f 34/92/92 35/93/93 50/88/88
f 35/93/93 36/94/94 50/88/88
f 36/94/94 37/95/95 50/88/88
f 37/95/95 38/96/96 50/88/88
f 38/96/96 39/97/97 50/88/88
f 39/97/97 40/98/98 50/88/88
f 40/98/98 41/99/99 50/88/88
f 41/99/99 42/100/100 50/88/88
f 42/100/100 43/101/101 50/88/88
f 43/101/101 44/102/102 50/88/88
f 44/102/102 45/103/103 50/88/88
f 45/103/103 46/104/104 50/88/88
f 46/104/104 47/105/105 50/88/88
f 47/105/105 48/106/106 50/88/88
f 48/106/106 29/86/86 50/88/88
s 4
f 51/107/107 52/108/108 72/109/109 71/110/110
f 52/108/108 53/111/111 73/112/112 72/109/109
f 53/111/111 54/113/113 74/114/114 73/112/112
f 54/113/113 55/115/115 75/116/116 74/114/114
f 55/115/115 56/117/117 76/118/118 75/116/116
f 56/117/117 57/119/119 77/120/120 76/118/118
f 57/119/119 58/121/121 78/122/122 77/120/120
f 58/121/121 59/123/123 79/124/124 78/122/122
f 59/123/123 60/125/125 80/126/126 79/124/124
f 60/125/125 61/127/127 81/128/128 80/126/126
f 61/127/127 62/129/129 82/130/130 81/128/128
f 62/129/129 63/131/131 83/132/132 82/130/130
f 63/131/131 64/133/133 84/134/134 83/132/132
f 64/133/133 65/135/135 85/136/136 84/134/134
f 65/135/135 66/137/137 86/138/138 85/136/136
f 66/137/137 67/139/139 87/140/140 86/138/138
f 67/139/139 68/141/141 88/142/142 87/140/140
f 68/141/141 69/143/143 89/144/144 88/142/142
f 69/143/143 70/145/145 90/146/146 89/144/144
f 70/145/145 51/147/107 71/148/110 90/146/146
s 5
f 52/149/147 51/150/148 91/151/149
f 53/152/150 52/149/147 91/151/149
f 54/153/151 53/152/150 91/151/149
f 55/154/152 54/153/151 91/151/149
f 56/155/153 55/154/152 91/151/149
f 57/156/154 56/155/153 91/151/149
f 58/157/155 57/156/154 91/151/149
f 59/158/156 58/157/155 91/151/149
f 60/159/157 59/158/156 91/151/149
f 61/160/158 60/159/157 91/151/149
f 62/161/159 61/160/158 91/151/149
f 63/162/160 62/161/159 91/151/149
f 64/163/161 63/162/160 91/151/149
f 65/164/162 64/163/161 91/151/149
f 66/165/163 65/164/162 91/151/149
f 67/166/164 66/165/163 91/151/149
f 68/167/165 67/166/164 91/151/149
f 69/168/166 68/167/165 91/151/149
f 70/169/167 69/168/166 91/151/149
f 51/150/148 70/169/167 91/151/149
s 6
f 71/170/168 72/171/169 92/172/170
f 72/171/169 73/173/171 92/172/170
f 73/173/171 74/174/172 92/172/170
f 74/174/172 75/175/173 92/172/170
f 75/175/173 76/176/174 92/172/170
f 76/176/174 77/177/175 92/172/170
f 77/177/175 78/178/176 92/172/170
f 78/178/176 79/179/177 92/172/170
f 79/179/177 80/180/178 92/172/170
f 80/180/178 81/181/179 92/172/170
f 81/181/179 82/182/180 92/172/170
f 82/182/180 83/183/181 92/172/170
f 83/183/181 84/184/182 92/172/170
f 84/184/182 85/185/183 92/172/170
f 85/185/183 86/186/184 92/172/170
f 86/186/184 87/187/185 92/172/170
f 87/187/185 88/188/186 92/172/170
f 88/188/186 89/189/187 92/172/170
f 89/189/187 90/190/188 92/172/170
f 90/190/188 71/170/168 92/172/170
