# This file uses centimeters as units for non-parametric coordinates.

mtllib AguaEstatica.mtl
g default
v -6597.879395 -4236.292057 11706.300781
v -2135.379395 -4236.292057 11706.300781
v -6597.879395 -2836.292057 11706.300781
v -2135.379395 -2836.292057 11706.300781
v -2135.379395 -3595.013004 13229.397461
v -2135.379395 -3565.013004 13229.397461
v -2135.379395 -3565.013004 11229.397461
v -2135.379395 -3595.013004 11229.397461
v -6597.879395 -4986.377018 13228.403320
v -2135.379395 -4986.377018 13228.403320
v -6597.879395 -3586.377018 13228.403320
v -2135.379395 -3586.377018 13228.403320
v -6598.674316 -4898.629459 13229.397461
v -6598.674316 -3559.879459 13229.397461
v -6598.674316 -4898.629459 11229.397461
v -6598.674316 -3559.879459 11229.397461
v -2061.417480 -5880.074772 14665.675781
v -8436.417969 -5880.074772 14695.675781
v -2061.417480 -5880.074772 14695.675781
v -8436.417969 -4380.074772 14695.675781
v -2061.417480 -4380.074772 14695.675781
v -2061.417480 -4380.074772 14665.675781
v -8435.916992 -6290.809635 14701.834961
v -8435.916992 -4378.309635 14701.834961
v -8435.916992 -6290.809635 9701.834961
v -8435.916992 -4378.309635 9701.834961
v -9810.232422 -4997.457096 16236.466797
v -2310.232910 -4997.457096 16236.466797
v -9810.232422 -4997.457096 11236.466797
v 2114.893066 -4221.709049 11721.121094
v 6577.393066 -4221.709049 11721.121094
v 2114.893066 -2821.709293 11721.121094
v 6577.393066 -2821.709293 11721.121094
v 2134.984375 -4986.377018 13198.403320
v 6597.484375 -4986.377018 13198.403320
v 2134.984375 -4986.377018 13228.403320
v 6597.484375 -4986.377018 13228.403320
v 2134.984375 -3586.377018 13228.403320
v 6597.484375 -3586.377018 13228.403320
v 6615.123535 -4898.629459 13229.397461
v 6615.123535 -3559.879459 13229.397461
v 6615.123535 -4898.629459 11229.397461
v 6615.123535 -3559.879459 11229.397461
v 2211.816406 -5263.511784 14723.498047
v 8268.066406 -5263.511784 14723.498047
v 2211.816406 -4263.511784 14723.498047
v 8268.066406 -4263.511784 14723.498047
v 8285.568359 -6086.222233 14701.834961
v 8285.568359 -4269.347233 14701.834961
v 8285.568359 -6086.222233 9701.834961
v 8285.568359 -4269.347233 9701.834961
v 9606.028320 -4997.457096 16236.466797
v 9606.028320 -4967.457096 16236.466797
v 9606.028320 -4967.457096 11236.466797
v 9606.028320 -4997.457096 11236.466797
v -9810.232422 -4967.457096 16236.466797
v -2310.232910 -4967.457096 16236.466797
v -9810.232422 -4967.457096 11236.466797
vt 0.001992 0.001992
vt 0.998008 0.001992
vt 0.998008 0.998008
vt 0.001992 0.998008
vt 0.625000 0.000000
vt 0.625000 0.250000
vt 0.875000 0.000000
vt 0.875000 0.250000
vt 0.001992 0.001992
vt 0.998008 0.001992
vt 0.998008 0.998008
vt 0.001992 0.998008
vt 0.001992 0.998008
vt 0.001992 0.001992
vt 0.998008 0.001992
vt 0.998008 0.998008
vt 0.625000 0.000000
vt 0.625000 0.250000
vt 0.001992 0.001992
vt 0.998008 0.001992
vt 0.998008 0.998008
vt 0.001992 0.998008
vt 0.875000 0.000000
vt 0.875000 0.250000
vt 0.001992 0.001992
vt 0.998008 0.001992
vt 0.998008 0.998008
vt 0.001992 0.998008
vt 0.375000 0.000000
vt 0.625000 0.000000
vt 0.125000 0.000000
vt 0.001992 0.001992
vt 0.998008 0.001992
vt 0.998008 0.998008
vt 0.001992 0.998008
vt 0.375000 0.000000
vt 0.625000 0.000000
vt 0.625000 0.250000
vt 0.375000 0.250000
vt 0.001992 0.001992
vt 0.998008 0.001992
vt 0.998008 0.998008
vt 0.001992 0.998008
vt 0.001992 0.001992
vt 0.998008 0.001992
vt 0.998008 0.998008
vt 0.001992 0.998008
vt 0.001991 0.001992
vt 0.997288 0.001992
vt 0.997288 0.998008
vt 0.001991 0.998008
vt 0.001992 0.001992
vt 0.998008 0.001992
vt 0.998008 0.998008
vt 0.001992 0.998008
vt 0.625000 0.000000
vt 0.625000 0.250000
vt 0.875000 0.000000
vt 0.875000 0.250000
vt 0.375000 0.250000
vt 0.625000 0.250000
vt 0.125000 0.250000
vn 0.000000 0.000000 1.000000
vn 0.000000 0.000000 1.000000
vn 0.000000 0.000000 1.000000
vn 0.000000 0.000000 1.000000
vn 1.000000 0.000000 0.000000
vn 1.000000 0.000000 0.000000
vn 1.000000 0.000000 0.000000
vn 1.000000 0.000000 0.000000
vn 0.000000 0.000000 1.000000
vn 0.000000 0.000000 1.000000
vn 0.000000 0.000000 1.000000
vn 0.000000 0.000000 1.000000
vn -1.000000 0.000000 0.000000
vn -1.000000 0.000000 0.000000
vn -1.000000 0.000000 0.000000
vn -1.000000 0.000000 0.000000
vn 0.000000 0.000000 1.000000
vn 0.000000 0.000000 1.000000
vn 0.000000 0.000000 1.000000
vn 0.000000 0.000000 1.000000
vn 1.000000 0.000000 0.000000
vn 1.000000 0.000000 0.000000
vn 1.000000 0.000000 0.000000
vn 1.000000 0.000000 0.000000
vn -1.000000 0.000000 0.000000
vn -1.000000 0.000000 0.000000
vn -1.000000 0.000000 0.000000
vn -1.000000 0.000000 0.000000
vn 0.000000 0.000000 1.000000
vn 0.000000 0.000000 1.000000
vn 0.000000 0.000000 1.000000
vn 0.000000 0.000000 1.000000
vn -1.000000 0.000000 0.000000
vn -1.000000 0.000000 0.000000
vn -1.000000 0.000000 0.000000
vn -1.000000 0.000000 0.000000
vn 0.000000 0.000000 1.000000
vn 0.000000 0.000000 1.000000
vn 0.000000 0.000000 1.000000
vn 0.000000 0.000000 1.000000
vn 0.000000 -1.000000 0.000000
vn 0.000000 -1.000000 0.000000
vn 0.000000 -1.000000 0.000000
vn 0.000000 -1.000000 0.000000
vn 0.000000 0.000000 1.000000
vn 0.000000 0.000000 1.000000
vn 0.000000 0.000000 1.000000
vn 0.000000 0.000000 1.000000
vn 1.000000 0.000000 0.000000
vn 1.000000 0.000000 0.000000
vn 1.000000 0.000000 0.000000
vn 1.000000 0.000000 0.000000
vn 0.000000 0.000000 1.000000
vn 0.000000 0.000000 1.000000
vn 0.000000 0.000000 1.000000
vn 0.000000 0.000000 1.000000
vn 1.000000 0.000000 0.000000
vn 1.000000 0.000000 0.000000
vn 1.000000 0.000000 0.000000
vn 1.000000 0.000000 0.000000
vn 1.000000 0.000000 0.000000
vn 1.000000 0.000000 0.000000
vn 1.000000 0.000000 0.000000
vn 1.000000 0.000000 0.000000
s off
g polySurface19 AguaEstatica
usemtl lambert2SG
f 1/1/1 2/2/2 4/3/3 3/4/4
f 5/5/5 8/7/6 7/8/7 6/6/8
f 9/9/9 10/10/10 12/11/11 11/12/12
f 13/13/13 14/14/14 16/15/15 15/16/16
f 18/19/17 19/20/18 21/21/19 20/22/20
f 17/17/21 22/23/22 21/24/23 19/18/24
f 23/25/25 24/26/26 26/27/27 25/28/28
f 27/29/29 28/30/30 57/61/31 56/60/32
f 29/31/33 27/29/34 56/60/35 58/62/36
f 30/32/37 31/33/38 33/34/39 32/35/40
f 34/36/41 35/37/42 37/38/43 36/39/44
f 36/40/45 37/41/46 39/42/47 38/43/48
usemtl pasted__lambert2SG3
f 42/44/49 43/45/50 41/46/51 40/47/52
usemtl lambert2SG
f 44/48/53 45/49/54 47/50/55 46/51/56
f 50/52/57 51/53/58 49/54/59 48/55/60
f 52/56/61 55/58/62 54/59/63 53/57/64
